<svg width="65.000000" height="65.000000" viewBox="0 0 65 65" fill="none" xmlns="http://www.w3.org/2000/svg" xmlns:xlink="http://www.w3.org/1999/xlink">
	<desc>
			Created with Pixso.
	</desc>
	<defs>
		<clipPath id="clip1_224">
			<rect id="desktop (1) 1" rx="0.000000" width="32.050846" height="32.050846" transform="translate(17.025391 17.025391)" fill="white" fill-opacity="0"/>
		</clipPath>
	</defs>
	<circle id="Ellipse 17" cx="32.500000" cy="32.500000" r="32.500000" fill="#FFFFFF" fill-opacity="1.000000"/>
	<rect id="desktop (1) 1" rx="0.000000" width="32.050846" height="32.050846" transform="translate(17.025391 17.025391)" fill="#FFFFFF" fill-opacity="0"/>
	<g clip-path="url(#clip1_224)">
		<path id="Shape" d="M45.72 18.17L20.38 18.17C18.25 18.18 16.52 19.9 16.52 22.03L16.52 44.06C16.52 46.19 18.25 47.92 20.38 47.92L45.72 47.92C47.84 47.92 49.57 46.19 49.57 44.06L49.57 22.03C49.57 19.9 47.84 18.18 45.72 18.17ZM48.47 44.06C48.47 45.58 47.24 46.82 45.72 46.82L20.38 46.82C18.86 46.82 17.62 45.58 17.62 44.06L17.62 22.03C17.62 20.51 18.86 19.28 20.38 19.27L45.72 19.27C47.24 19.28 48.47 20.51 48.47 22.03L48.47 44.06Z" fill="#DC7000" fill-opacity="1.000000" fill-rule="nonzero"/>
		<path id="Shape" d="M45.72 22.58L20.38 22.58C19.46 22.58 18.72 23.32 18.72 24.23L18.72 44.06C18.72 44.98 19.46 45.72 20.38 45.72L45.72 45.72C46.63 45.72 47.37 44.98 47.37 44.06L47.37 24.23C47.37 23.32 46.63 22.58 45.72 22.58ZM33.05 33.52L27.05 30.29L33.05 27.06L39.05 30.29L33.05 33.52ZM39.66 31.21L39.66 37.67L33.6 40.94L33.6 34.48L39.66 31.21ZM32.5 34.48L32.5 40.94L26.44 37.67L26.44 31.21L32.5 34.48ZM19.83 24.23C19.83 23.93 20.07 23.68 20.38 23.68L32.5 23.68L32.5 26.11L25.62 29.81C25.62 29.81 25.61 29.81 25.6 29.82C25.43 29.92 25.33 30.1 25.33 30.29L25.33 34.91L19.83 37.66L19.83 24.23ZM46.27 44.06C46.27 44.37 46.02 44.61 45.72 44.61L20.38 44.61C20.07 44.61 19.83 44.37 19.83 44.06L19.83 38.89L25.33 36.14L25.33 38C25.33 38.21 25.45 38.39 25.62 38.49L32.78 42.34C32.95 42.43 33.14 42.43 33.31 42.34L40.47 38.49C40.65 38.39 40.76 38.21 40.76 38L40.76 36.14L46.27 38.89L46.27 44.06ZM46.27 37.66L40.76 34.91L40.76 30.29C40.76 30.1 40.66 29.92 40.49 29.82C40.48 29.81 40.47 29.81 40.47 29.81L33.6 26.11L33.6 23.68L45.72 23.68C46.02 23.68 46.27 23.93 46.27 24.23L46.27 37.66Z" fill="#DC7000" fill-opacity="1.000000" fill-rule="nonzero"/>
		<path id="Oval" d="M20.38 20.93C20.38 21.23 20.13 21.48 19.83 21.48C19.52 21.48 19.27 21.23 19.27 20.93C19.27 20.62 19.52 20.38 19.83 20.38C20.13 20.38 20.38 20.62 20.38 20.93Z" fill="#DC7000" fill-opacity="1.000000" fill-rule="evenodd"/>
		<path id="Oval" d="M22.58 20.93C22.58 21.23 22.33 21.48 22.03 21.48C21.72 21.48 21.48 21.23 21.48 20.93C21.48 20.62 21.72 20.38 22.03 20.38C22.33 20.38 22.58 20.62 22.58 20.93Z" fill="#DC7000" fill-opacity="1.000000" fill-rule="evenodd"/>
		<path id="Oval" d="M24.78 20.93C24.78 21.23 24.54 21.48 24.23 21.48C23.93 21.48 23.68 21.23 23.68 20.93C23.68 20.62 23.93 20.38 24.23 20.38C24.54 20.38 24.78 20.62 24.78 20.93Z" fill="#DC7000" fill-opacity="1.000000" fill-rule="evenodd"/>
		<path id="Shape" d="M38 21.48L45.72 21.48C46.02 21.48 46.27 21.23 46.27 20.93C46.27 20.62 46.02 20.38 45.72 20.38L38 20.38C37.7 20.38 37.45 20.62 37.45 20.93C37.45 21.23 37.7 21.48 38 21.48Z" fill="#DC7000" fill-opacity="1.000000" fill-rule="nonzero"/>
	</g>
</svg>
