<svg width="21.000000" height="18.009735" viewBox="0 0 21 18.0097" fill="none" xmlns="http://www.w3.org/2000/svg" xmlns:xlink="http://www.w3.org/1999/xlink">
	<desc>
			Created with Pixso.
	</desc>
	<defs/>
	<path id="Vector" d="M1.26 10.47C1.34 10.49 1.43 10.49 1.52 10.49L16.33 10.49L16.01 10.64C15.69 10.79 15.41 11 15.16 11.24L11.01 15.4C10.46 15.92 10.37 16.76 10.79 17.39C11.28 18.06 12.22 18.2 12.89 17.71C12.94 17.67 12.99 17.63 13.04 17.59L20.55 10.07C21.14 9.49 21.14 8.53 20.56 7.95C20.56 7.95 20.55 7.95 20.55 7.95L13.04 0.43C12.45 -0.15 11.5 -0.15 10.92 0.44C10.87 0.48 10.83 0.53 10.79 0.58C10.37 1.21 10.46 2.05 11.01 2.57L15.15 6.74C15.37 6.96 15.63 7.14 15.9 7.29L16.35 7.49L1.6 7.49C0.83 7.46 0.16 8 0.01 8.75C-0.12 9.57 0.44 10.34 1.26 10.47Z" fill="#DC7000" fill-opacity="1.000000" fill-rule="nonzero"/>
</svg>
